PathFileType	4	(X/Y/Z)	pose_F01_0-94.trc
DataRate	CameraRate	NumFrames	NumMarkers	Units	OrigDataRate	OrigDataStartFrame	OrigNumFrames
30	30	7	21	m	30	13	94
Frame#	Time	CHip			RHip			RKnee			RAnkle			RBigToe			RSmallToe			RHeel			LHip			LKnee			LAnkle			LBigToe			LSmallToe			LHeel			Neck			Nose			RShoulder			RElbow			RWrist			LShoulder			LElbow			LWrist			
		X1	Y1	Z1	X2	Y2	Z2	X3	Y3	Z3	X4	Y4	Z4	X5	Y5	Z5	X6	Y6	Z6	X7	Y7	Z7	X8	Y8	Z8	X9	Y9	Z9	X10	Y10	Z10	X11	Y11	Z11	X12	Y12	Z12	X13	Y13	Z13	X14	Y14	Z14	X15	Y15	Z15	X16	Y16	Z16	X17	Y17	Z17	X18	Y18	Z18	X19	Y19	Z19	X20	Y20	Z20	X21	Y21	Z21	
13	0.43333333333333335	-0.26488856413585304	1.8794722638864605	-0.5404835042852596	-0.2799120599848114	1.8771726070717905	-0.46731447979733987	-0.2952877413608756	1.7277774476439676	-0.39314781465347226	-0.3257738292129916	1.6021503980656941	-0.36940706748204016							-0.32952533231943026	1.59001853922602	-0.3822508152780784	-0.25058041114612006	1.883021876530839	-0.6031156734091723	-0.2643354493224134	1.7307261807390628	-0.6003978677957814													-0.2691771605663397	2.0525713000313854	-0.5573747806112773	-0.252171681016692	2.1197611736216877	-0.5301355022783694	-0.290843651602143	2.048185962182942	-0.46567315023100236	-0.2976778345735609	1.953834033323698	-0.43135172778590647	-0.300399164615332	1.8728791727697476	-0.3902954084203092	-0.2434389318156097	2.057169729526669	-0.6542029734132571	-0.2415325040056909	1.9697589735920078	-0.6663369096806602	-0.2325946621610873	1.893608198258213	-0.680126192050354
14	0.4666666666666667	-0.26679836761377534	1.874736546283895	-0.5378024334123628	-0.2799209020093043	1.8725905720834106	-0.46673843786382935	-0.2952877413608756	1.7277774476439676	-0.39314781465347226	-0.3257738292129916	1.6021503980656941	-0.36940706748204016							-0.32952533231943026	1.59001853922602	-0.3822508152780784	-0.2525119822297574	1.878574691229097	-0.6003850760064608	-0.2643354493224134	1.7307261807390628	-0.6003978677957814													-0.2691421360465974	2.0525717854213457	-0.5573241009460804	-0.25019481342727573	2.120807528809804	-0.5319665651718843	-0.2896477239454804	2.0480037521824785	-0.46199355785252355	-0.2994304235887671	1.9542888842729718	-0.42916006806533463	-0.30282479039731747	1.8733777096157032	-0.39717104856901253	-0.24341254742757418	2.0572139762186215	-0.654193850758391	-0.2424040881922868	1.9682197949621343	-0.6690725684623493	-0.23236036022892267	1.8897784093417476	-0.6787106446279536
15	0.5	-0.26721310474587723	1.876288493108377	-0.5381621385933777	-0.2813222280120692	1.8746620784486476	-0.4701798785050862	-0.2952877413608756	1.7277774476439676	-0.39314781465347226	-0.3257738292129916	1.6021503980656941	-0.36940706748204016							-0.32952533231943026	1.59001853922602	-0.3822508152780784	-0.250834653493402	1.8792870733710183	-0.6026674775770772	-0.2643354493224134	1.7307261807390628	-0.6003978677957814													-0.2700973139655272	2.052649996099034	-0.5603096893137745	-0.25021086325724456	2.1209183484405263	-0.5320553280777652	-0.2907367266476147	2.0493329114579346	-0.4655935711257985	-0.30059741029429166	1.957158318749305	-0.43263223326212336	-0.3017851102927613	1.8782602318583776	-0.39468535387228887	-0.2433941443397761	2.057336268710491	-0.6542479990254896	-0.24323773893250641	1.968392242572155	-0.6721719226873243	-0.23212605829675803	1.885948620425282	-0.6772950972055533
16	0.5333333333333333	-0.2649495869068782	1.8765558517910077	-0.5401280569387217	-0.28100518035613276	1.87467931659428	-0.4701124272025074	-0.2952877413608756	1.7277774476439676	-0.39314781465347226	-0.3257738292129916	1.6021503980656941	-0.36940706748204016							-0.32952533231943026	1.59001853922602	-0.3822508152780784	-0.25061706665772476	1.8803078783438845	-0.6026681396602579	-0.2643354493224134	1.7307261807390628	-0.6003978677957814													-0.26916331743269484	2.0526204189490516	-0.557308011381505	-0.25217724025924093	2.1197622097874813	-0.5301806709088264	-0.2907514588717621	2.0470171539256827	-0.4650656938888483	-0.30041559013090113	1.957805646605229	-0.4328273823697451	-0.3013980506098019	1.8818463439145903	-0.39492448726602375	-0.24340624467978159	2.0572483393794534	-0.6541716889142115	-0.24254060879917022	1.966339420425589	-0.6691016928888922	-0.23189175636459342	1.8821188315088166	-0.6758795497831529
17	0.5666666666666667	-0.267074717886045	1.8747512044435284	-0.5379151987725627	-0.28117912154463187	1.873058278527034	-0.4699612931796528	-0.2952877413608756	1.7277774476439676	-0.39314781465347226	-0.3257738292129916	1.6021503980656941	-0.36940706748204016							-0.32952533231943026	1.59001853922602	-0.3822508152780784	-0.25279809925900504	1.878544683207266	-0.6004287203956846	-0.2643354493224134	1.7307261807390628	-0.6003978677957814													-0.26918483760844425	2.0525716164873495	-0.5573527189898685	-0.2502885793295535	2.119836347345513	-0.5322428494626623	-0.29067978372603603	2.0493061688452197	-0.46553625305804214	-0.2995089779014511	1.9559526435622827	-0.42947565647587443	-0.30186144159272205	1.8781905425748693	-0.3945500490020643	-0.24348280413963996	2.0571195296606173	-0.6542150286171627	-0.2426689216963986	1.9642010346968173	-0.6692528056703062	-0.23006689936713315	1.881026696437511	-0.6777489064770535
18	0.6	-0.26674388975238483	1.8769190736025005	-0.5381319131277871	-0.2798690365690783	1.8749544522259272	-0.46709522628408456	-0.2952877413608756	1.7277774476439676	-0.39314781465347226	-0.3257738292129916	1.6021503980656941	-0.36940706748204016							-0.32952533231943026	1.59001853922602	-0.3822508152780784	-0.25156945269884273	1.8807310158626638	-0.5976392952133579	-0.2643354493224134	1.7307261807390628	-0.6003978677957814													-0.27009570585457965	2.0514391677340975	-0.559770184375757	-0.2522281026693529	2.11844516653585	-0.5295656269957161	-0.29078551475386893	2.0469338070030383	-0.4651724644297672	-0.2994440959950637	1.9548085666447694	-0.42907899159631285	-0.3015114305968515	1.874637783952923	-0.3937788776488121	-0.2434531859767372	2.055972712078364	-0.6537541256767813	-0.24244435864984365	1.9652877016247488	-0.6687417893593597	-0.2310532893823524	1.880387166405698	-0.6724978453453136
19	0.6333333333333333	-0.2660791152381277	1.8772525270693377	-0.5350180781645422	-0.2819770883425817	1.8749857760757422	-0.46490054649363877	-0.2952877413608756	1.7277774476439676	-0.39314781465347226	-0.3257738292129916	1.6021503980656941	-0.36940706748204016							-0.32952533231943026	1.59001853922602	-0.3822508152780784	-0.25171740695907635	1.8799011146721314	-0.5975005004272175	-0.2643354493224134	1.7307261807390628	-0.6003978677957814													-0.269149480804832	2.0513478235666227	-0.5568032536382076	-0.25228894796300433	2.118601965111695	-0.5303158994639269	-0.2897397183311222	2.0468184238468687	-0.46207588148383905	-0.2972162578963289	1.95833299147954	-0.42301486244200437	-0.30105757566902147	1.8760657634261495	-0.39202669324531125	-0.24343333410588103	2.056011256097136	-0.6537134398787282	-0.24263502095082695	1.964778281153246	-0.6691247840412905	-0.23219272777128525	1.8832316711915893	-0.675928211823986
